<svg xmlns="http://www.w3.org/2000/svg" version="1.1" xmlns:xlink="http://www.w3.org/1999/xlink" width="1000" height="1000"><style>
    #light-icon {
      display: inline;
    }
    #dark-icon {
      display: none;
    }

    @media (prefers-color-scheme: dark) {
      #light-icon {
        display: none;
      }
      #dark-icon {
        display: inline;
      }
    }
  </style><g id="light-icon"><svg xmlns="http://www.w3.org/2000/svg" version="1.1" xmlns:xlink="http://www.w3.org/1999/xlink" width="1000" height="1000"><g><g transform="matrix(1.953125,0,0,1.953125,0,0)"><svg xmlns="http://www.w3.org/2000/svg" version="1.1" xmlns:xlink="http://www.w3.org/1999/xlink" width="512" height="512"><svg width="512" height="512" viewBox="0 0 512 512" fill="none" xmlns="http://www.w3.org/2000/svg">
<g clip-path="url(#clip0_695_137)">
<g filter="url(#filter0_dddd_695_137)">
<path d="M244.807 269.195C285.323 309.711 284.882 376.369 243.168 418.083C201.454 459.797 134.796 460.238 94.2799 419.722C53.7641 379.205 54.2057 312.548 95.9192 270.834C137.633 229.121 204.29 228.679 244.807 269.195Z" stroke="url(#paint0_linear_695_137)" stroke-width="22"></path>
<path d="M332.415 181.585C395.776 244.946 394.479 349.801 328.487 415.793C262.495 481.785 157.64 483.082 94.2791 419.721C30.9187 356.361 32.2164 251.506 98.2083 185.514C164.2 119.523 269.055 118.225 332.415 181.585Z" stroke="url(#paint1_linear_695_137)" stroke-width="22"></path>
<path d="M420.722 93.2783C508.265 180.821 506.688 325.015 416.352 415.351C326.016 505.687 181.821 507.264 94.2785 419.722C6.73607 332.18 8.31363 187.985 98.6496 97.6486C188.986 7.31292 333.18 5.7359 420.722 93.2783Z" stroke="url(#paint2_linear_695_137)" stroke-width="22"></path>
</g>
<mask id="mask0_695_137" style="mask-type:alpha" maskUnits="userSpaceOnUse" x="15" y="14" width="485" height="485">
<path d="M244.749 269.253C285.791 310.294 285.341 377.813 243.091 420.063C200.841 462.313 133.322 462.764 92.2799 421.722C51.2381 380.68 51.6886 313.161 93.9386 270.911C136.189 228.661 203.707 228.211 244.749 269.253Z" stroke="url(#paint3_linear_695_137)" stroke-width="22"></path>
<path d="M333.382 180.618C397.537 244.773 396.219 350.936 329.408 417.748C262.596 484.559 156.434 485.876 92.2789 421.722C28.1245 357.567 29.4427 251.405 96.2536 184.594C163.065 117.782 269.228 116.464 333.382 180.618Z" stroke="url(#paint4_linear_695_137)" stroke-width="22"></path>
<path d="M422.722 91.2781C511.34 179.897 509.741 325.86 418.3 417.301C326.86 508.741 180.897 510.34 92.2784 421.721C3.6599 333.103 5.25968 187.141 96.6999 95.7003C188.14 4.25982 334.103 2.65952 422.722 91.2781Z" stroke="url(#paint5_linear_695_137)" stroke-width="22"></path>
</mask>
<g mask="url(#mask0_695_137)">
<g style="mix-blend-mode:screen" opacity="0.06" filter="url(#filter1_f_695_137)">
<ellipse cx="102.083" cy="265.231" rx="102.083" ry="265.231" transform="matrix(0.756145 0.654404 -0.693614 0.720346 298.26 -43.5382)" fill="#6B84FF"></ellipse>
</g>
<g style="mix-blend-mode:screen" opacity="0.1" filter="url(#filter2_f_695_137)">
<ellipse cx="102.083" cy="265.231" rx="102.083" ry="265.231" transform="matrix(0.756145 0.654404 -0.693614 0.720346 342.853 128.151)" fill="#FFE1A4"></ellipse>
</g>
<g style="mix-blend-mode:screen" opacity="0.02" filter="url(#filter3_f_695_137)">
<ellipse cx="157.118" cy="265.231" rx="157.118" ry="265.231" transform="matrix(0.756145 0.654404 -0.693614 0.720346 298.26 -43.5382)" fill="#FFD06B"></ellipse>
</g>
</g>
</g>
<defs>
<filter id="filter0_dddd_695_137" x="5.74023" y="14.74" width="503.521" height="527.52" filterUnits="userSpaceOnUse" color-interpolation-filters="sRGB">
<feFlood flood-opacity="0" result="BackgroundImageFix"></feFlood>
<feColorMatrix in="SourceAlpha" type="matrix" values="0 0 0 0 0 0 0 0 0 0 0 0 0 0 0 0 0 0 127 0" result="hardAlpha"></feColorMatrix>
<feOffset dy="2"></feOffset>
<feGaussianBlur stdDeviation="2.5"></feGaussianBlur>
<feColorMatrix type="matrix" values="0 0 0 0 0 0 0 0 0 0 0 0 0 0 0 0 0 0 0.04 0"></feColorMatrix>
<feBlend mode="normal" in2="BackgroundImageFix" result="effect1_dropShadow_695_137"></feBlend>
<feColorMatrix in="SourceAlpha" type="matrix" values="0 0 0 0 0 0 0 0 0 0 0 0 0 0 0 0 0 0 127 0" result="hardAlpha"></feColorMatrix>
<feOffset dy="8"></feOffset>
<feGaussianBlur stdDeviation="4"></feGaussianBlur>
<feColorMatrix type="matrix" values="0 0 0 0 0 0 0 0 0 0 0 0 0 0 0 0 0 0 0.04 0"></feColorMatrix>
<feBlend mode="normal" in2="effect1_dropShadow_695_137" result="effect2_dropShadow_695_137"></feBlend>
<feColorMatrix in="SourceAlpha" type="matrix" values="0 0 0 0 0 0 0 0 0 0 0 0 0 0 0 0 0 0 127 0" result="hardAlpha"></feColorMatrix>
<feOffset dy="19"></feOffset>
<feGaussianBlur stdDeviation="5.5"></feGaussianBlur>
<feColorMatrix type="matrix" values="0 0 0 0 0 0 0 0 0 0 0 0 0 0 0 0 0 0 0.02 0"></feColorMatrix>
<feBlend mode="normal" in2="effect2_dropShadow_695_137" result="effect3_dropShadow_695_137"></feBlend>
<feColorMatrix in="SourceAlpha" type="matrix" values="0 0 0 0 0 0 0 0 0 0 0 0 0 0 0 0 0 0 127 0" result="hardAlpha"></feColorMatrix>
<feOffset dy="34"></feOffset>
<feGaussianBlur stdDeviation="6.5"></feGaussianBlur>
<feColorMatrix type="matrix" values="0 0 0 0 0 0 0 0 0 0 0 0 0 0 0 0 0 0 0.01 0"></feColorMatrix>
<feBlend mode="normal" in2="effect3_dropShadow_695_137" result="effect4_dropShadow_695_137"></feBlend>
<feBlend mode="normal" in="SourceGraphic" in2="effect4_dropShadow_695_137" result="shape"></feBlend>
</filter>
<filter id="filter1_f_695_137" x="-112.076" y="-92.1321" width="607.115" height="612.911" filterUnits="userSpaceOnUse" color-interpolation-filters="sRGB">
<feFlood flood-opacity="0" result="BackgroundImageFix"></feFlood>
<feBlend mode="normal" in="SourceGraphic" in2="BackgroundImageFix" result="shape"></feBlend>
<feGaussianBlur stdDeviation="52" result="effect1_foregroundBlur_695_137"></feGaussianBlur>
</filter>
<filter id="filter2_f_695_137" x="-67.4834" y="79.5568" width="607.115" height="612.911" filterUnits="userSpaceOnUse" color-interpolation-filters="sRGB">
<feFlood flood-opacity="0" result="BackgroundImageFix"></feFlood>
<feBlend mode="normal" in="SourceGraphic" in2="BackgroundImageFix" result="shape"></feBlend>
<feGaussianBlur stdDeviation="52" result="effect1_foregroundBlur_695_137"></feGaussianBlur>
</filter>
<filter id="filter3_f_695_137" x="-89.9248" y="-70.6711" width="646.041" height="642.019" filterUnits="userSpaceOnUse" color-interpolation-filters="sRGB">
<feFlood flood-opacity="0" result="BackgroundImageFix"></feFlood>
<feBlend mode="normal" in="SourceGraphic" in2="BackgroundImageFix" result="shape"></feBlend>
<feGaussianBlur stdDeviation="52" result="effect1_foregroundBlur_695_137"></feGaussianBlur>
</filter>
<linearGradient id="paint0_linear_695_137" x1="252.585" y1="261.417" x2="86.5022" y2="427.5" gradientUnits="userSpaceOnUse">
<stop stop-color="#23262A"></stop>
<stop offset="1" stop-color="#0F1422"></stop>
</linearGradient>
<linearGradient id="paint1_linear_695_137" x1="340.194" y1="173.807" x2="86.5012" y2="427.5" gradientUnits="userSpaceOnUse">
<stop stop-color="#23262A"></stop>
<stop offset="1" stop-color="#0F1422"></stop>
</linearGradient>
<linearGradient id="paint2_linear_695_137" x1="428.5" y1="85.5001" x2="86.5006" y2="427.5" gradientUnits="userSpaceOnUse">
<stop stop-color="#23262A"></stop>
<stop offset="1" stop-color="#0F1422"></stop>
</linearGradient>
<linearGradient id="paint3_linear_695_137" x1="252.527" y1="261.475" x2="84.502" y2="429.5" gradientUnits="userSpaceOnUse">
<stop stop-color="#FAFAFA"></stop>
<stop offset="1" stop-color="#CED0D4"></stop>
</linearGradient>
<linearGradient id="paint4_linear_695_137" x1="341.161" y1="172.84" x2="84.5009" y2="429.5" gradientUnits="userSpaceOnUse">
<stop stop-color="#FAFAFA"></stop>
<stop offset="1" stop-color="#CED0D4"></stop>
</linearGradient>
<linearGradient id="paint5_linear_695_137" x1="430.5" y1="83.5001" x2="84.5002" y2="429.5" gradientUnits="userSpaceOnUse">
<stop stop-color="#FAFAFA"></stop>
<stop offset="1" stop-color="#CED0D4"></stop>
</linearGradient>
<clipPath id="clip0_695_137">
<rect width="512" height="512" fill="white"></rect>
</clipPath>
</defs>
</svg></svg></g></g></svg></g><g id="dark-icon"><svg xmlns="http://www.w3.org/2000/svg" version="1.1" xmlns:xlink="http://www.w3.org/1999/xlink" width="1000" height="1000"><g><g transform="matrix(1.953125,0,0,1.953125,0,0)"><svg xmlns="http://www.w3.org/2000/svg" version="1.1" xmlns:xlink="http://www.w3.org/1999/xlink" width="512" height="512"><svg width="512" height="512" viewBox="0 0 512 512" fill="none" xmlns="http://www.w3.org/2000/svg">
<g clip-path="url(#clip0_695_116)">
<g filter="url(#filter0_dddd_695_116)">
<path d="M244.807 269.195C285.323 309.711 284.882 376.369 243.168 418.083C201.454 459.797 134.796 460.238 94.2799 419.722C53.7641 379.205 54.2057 312.548 95.9192 270.834C137.633 229.121 204.29 228.679 244.807 269.195Z" stroke="url(#paint0_linear_695_116)" stroke-width="22"></path>
<path d="M332.415 181.585C395.776 244.946 394.479 349.801 328.487 415.793C262.495 481.785 157.64 483.082 94.2791 419.721C30.9187 356.361 32.2164 251.506 98.2083 185.514C164.2 119.523 269.055 118.225 332.415 181.585Z" stroke="url(#paint1_linear_695_116)" stroke-width="22"></path>
<path d="M420.722 93.2783C508.265 180.821 506.688 325.015 416.352 415.351C326.016 505.687 181.821 507.264 94.2785 419.722C6.73607 332.18 8.31363 187.985 98.6496 97.6486C188.986 7.31292 333.18 5.7359 420.722 93.2783Z" stroke="url(#paint2_linear_695_116)" stroke-width="22"></path>
</g>
<mask id="mask0_695_116" style="mask-type:alpha" maskUnits="userSpaceOnUse" x="15" y="14" width="485" height="485">
<path d="M244.749 269.253C285.791 310.294 285.341 377.813 243.091 420.063C200.841 462.313 133.322 462.764 92.2799 421.722C51.2381 380.68 51.6886 313.161 93.9386 270.911C136.189 228.661 203.707 228.211 244.749 269.253Z" stroke="url(#paint3_linear_695_116)" stroke-width="22"></path>
<path d="M333.382 180.618C397.537 244.773 396.219 350.936 329.408 417.748C262.596 484.559 156.434 485.876 92.2789 421.722C28.1245 357.567 29.4427 251.405 96.2536 184.594C163.065 117.782 269.228 116.464 333.382 180.618Z" stroke="url(#paint4_linear_695_116)" stroke-width="22"></path>
<path d="M422.722 91.2781C511.34 179.897 509.741 325.86 418.3 417.301C326.86 508.741 180.897 510.34 92.2784 421.721C3.6599 333.103 5.25968 187.141 96.6999 95.7003C188.14 4.25982 334.103 2.65952 422.722 91.2781Z" stroke="url(#paint5_linear_695_116)" stroke-width="22"></path>
</mask>
<g mask="url(#mask0_695_116)">
<g style="mix-blend-mode:multiply" opacity="0.06" filter="url(#filter1_f_695_116)">
<ellipse cx="102.083" cy="265.231" rx="102.083" ry="265.231" transform="matrix(0.756145 0.654404 -0.693614 0.720346 298.26 -43.5382)" fill="#6B84FF"></ellipse>
</g>
<g style="mix-blend-mode:multiply" opacity="0.1" filter="url(#filter2_f_695_116)">
<ellipse cx="102.083" cy="265.231" rx="102.083" ry="265.231" transform="matrix(0.756145 0.654404 -0.693614 0.720346 342.853 128.151)" fill="#FFCE6B"></ellipse>
</g>
<g style="mix-blend-mode:color-dodge" opacity="0.02" filter="url(#filter3_f_695_116)">
<ellipse cx="157.118" cy="265.231" rx="157.118" ry="265.231" transform="matrix(0.756145 0.654404 -0.693614 0.720346 298.26 -43.5382)" fill="#FFD06B"></ellipse>
</g>
</g>
</g>
<defs>
<filter id="filter0_dddd_695_116" x="5.74023" y="14.74" width="503.521" height="527.52" filterUnits="userSpaceOnUse" color-interpolation-filters="sRGB">
<feFlood flood-opacity="0" result="BackgroundImageFix"></feFlood>
<feColorMatrix in="SourceAlpha" type="matrix" values="0 0 0 0 0 0 0 0 0 0 0 0 0 0 0 0 0 0 127 0" result="hardAlpha"></feColorMatrix>
<feOffset dy="2"></feOffset>
<feGaussianBlur stdDeviation="2.5"></feGaussianBlur>
<feColorMatrix type="matrix" values="0 0 0 0 0 0 0 0 0 0 0 0 0 0 0 0 0 0 0.04 0"></feColorMatrix>
<feBlend mode="normal" in2="BackgroundImageFix" result="effect1_dropShadow_695_116"></feBlend>
<feColorMatrix in="SourceAlpha" type="matrix" values="0 0 0 0 0 0 0 0 0 0 0 0 0 0 0 0 0 0 127 0" result="hardAlpha"></feColorMatrix>
<feOffset dy="8"></feOffset>
<feGaussianBlur stdDeviation="4"></feGaussianBlur>
<feColorMatrix type="matrix" values="0 0 0 0 0 0 0 0 0 0 0 0 0 0 0 0 0 0 0.04 0"></feColorMatrix>
<feBlend mode="normal" in2="effect1_dropShadow_695_116" result="effect2_dropShadow_695_116"></feBlend>
<feColorMatrix in="SourceAlpha" type="matrix" values="0 0 0 0 0 0 0 0 0 0 0 0 0 0 0 0 0 0 127 0" result="hardAlpha"></feColorMatrix>
<feOffset dy="19"></feOffset>
<feGaussianBlur stdDeviation="5.5"></feGaussianBlur>
<feColorMatrix type="matrix" values="0 0 0 0 0 0 0 0 0 0 0 0 0 0 0 0 0 0 0.02 0"></feColorMatrix>
<feBlend mode="normal" in2="effect2_dropShadow_695_116" result="effect3_dropShadow_695_116"></feBlend>
<feColorMatrix in="SourceAlpha" type="matrix" values="0 0 0 0 0 0 0 0 0 0 0 0 0 0 0 0 0 0 127 0" result="hardAlpha"></feColorMatrix>
<feOffset dy="34"></feOffset>
<feGaussianBlur stdDeviation="6.5"></feGaussianBlur>
<feColorMatrix type="matrix" values="0 0 0 0 0 0 0 0 0 0 0 0 0 0 0 0 0 0 0.01 0"></feColorMatrix>
<feBlend mode="normal" in2="effect3_dropShadow_695_116" result="effect4_dropShadow_695_116"></feBlend>
<feBlend mode="normal" in="SourceGraphic" in2="effect4_dropShadow_695_116" result="shape"></feBlend>
</filter>
<filter id="filter1_f_695_116" x="-112.076" y="-92.1321" width="607.115" height="612.911" filterUnits="userSpaceOnUse" color-interpolation-filters="sRGB">
<feFlood flood-opacity="0" result="BackgroundImageFix"></feFlood>
<feBlend mode="normal" in="SourceGraphic" in2="BackgroundImageFix" result="shape"></feBlend>
<feGaussianBlur stdDeviation="52" result="effect1_foregroundBlur_695_116"></feGaussianBlur>
</filter>
<filter id="filter2_f_695_116" x="-67.4834" y="79.5568" width="607.115" height="612.911" filterUnits="userSpaceOnUse" color-interpolation-filters="sRGB">
<feFlood flood-opacity="0" result="BackgroundImageFix"></feFlood>
<feBlend mode="normal" in="SourceGraphic" in2="BackgroundImageFix" result="shape"></feBlend>
<feGaussianBlur stdDeviation="52" result="effect1_foregroundBlur_695_116"></feGaussianBlur>
</filter>
<filter id="filter3_f_695_116" x="-89.9248" y="-70.6711" width="646.041" height="642.019" filterUnits="userSpaceOnUse" color-interpolation-filters="sRGB">
<feFlood flood-opacity="0" result="BackgroundImageFix"></feFlood>
<feBlend mode="normal" in="SourceGraphic" in2="BackgroundImageFix" result="shape"></feBlend>
<feGaussianBlur stdDeviation="52" result="effect1_foregroundBlur_695_116"></feGaussianBlur>
</filter>
<linearGradient id="paint0_linear_695_116" x1="252.585" y1="261.417" x2="86.5022" y2="427.5" gradientUnits="userSpaceOnUse">
<stop stop-color="#FAFAFA"></stop>
<stop offset="1" stop-color="#CED0D4"></stop>
</linearGradient>
<linearGradient id="paint1_linear_695_116" x1="340.194" y1="173.807" x2="86.5012" y2="427.5" gradientUnits="userSpaceOnUse">
<stop stop-color="#FAFAFA"></stop>
<stop offset="1" stop-color="#CED0D4"></stop>
</linearGradient>
<linearGradient id="paint2_linear_695_116" x1="428.5" y1="85.5001" x2="86.5006" y2="427.5" gradientUnits="userSpaceOnUse">
<stop stop-color="#FAFAFA"></stop>
<stop offset="1" stop-color="#CED0D4"></stop>
</linearGradient>
<linearGradient id="paint3_linear_695_116" x1="252.527" y1="261.475" x2="84.502" y2="429.5" gradientUnits="userSpaceOnUse">
<stop stop-color="#FAFAFA"></stop>
<stop offset="1" stop-color="#CED0D4"></stop>
</linearGradient>
<linearGradient id="paint4_linear_695_116" x1="341.161" y1="172.84" x2="84.5009" y2="429.5" gradientUnits="userSpaceOnUse">
<stop stop-color="#FAFAFA"></stop>
<stop offset="1" stop-color="#CED0D4"></stop>
</linearGradient>
<linearGradient id="paint5_linear_695_116" x1="430.5" y1="83.5001" x2="84.5002" y2="429.5" gradientUnits="userSpaceOnUse">
<stop stop-color="#FAFAFA"></stop>
<stop offset="1" stop-color="#CED0D4"></stop>
</linearGradient>
<clipPath id="clip0_695_116">
<rect width="512" height="512" fill="white"></rect>
</clipPath>
</defs>
</svg></svg></g></g></svg></g></svg>